<svg viewBox="0 0 37 36" fill="none" xmlns="http://www.w3.org/2000/svg">
<path d="M36.1915 18.0227C36.1915 23.3333 33.8738 28.1084 30.2189 31.4108C25.628 33.6422 21.3491 32.0802 19.9229 31.0984C24.4246 30.1166 27.8566 24.6275 27.8566 18.0227C27.8566 11.4178 24.4246 5.92869 19.9229 4.94689C21.3491 3.9651 25.628 2.40315 30.2189 4.6345C33.8738 7.93691 36.1915 12.712 36.1915 18.0227Z" fill="black"/>
<path d="M12.3898 7.89203C10.4287 10.2126 9.13609 13.6936 9.04695 17.5761V18.424C9.13609 22.3066 10.4287 25.7875 12.3898 28.1081C14.975 31.4552 18.7636 33.5527 23.0425 33.5527C25.6722 33.5527 28.1236 32.7494 30.2185 31.3659C27.0539 34.2221 22.8642 35.9179 18.2733 35.9179C18.0059 35.9179 17.6939 35.9179 17.4264 35.9179C7.93266 35.5162 0.355469 27.6619 0.355469 18.0224C0.355469 8.11517 8.37837 0.0822754 18.2733 0.0822754C18.3179 0.0822754 18.3179 0.0822754 18.3624 0.0822754C22.9087 0.0822754 27.0539 1.82273 30.2185 4.63425C28.1236 3.2508 25.6722 2.44752 23.0425 2.44752C18.7636 2.44752 14.9304 4.58962 12.3898 7.89203Z" fill="black"/>
</svg>
